
<svg xmlns="http://www.w3.org/2000/svg" xmlns:xlink="http://www.w3.org/1999/xlink" version="1.1" width="60" height="40" viewBox="0 -2.5 60 40" xml:space="preserve">
<rect x="0" y="0" width="100%" height="100%" fill="transparent"></rect>
<g transform="matrix(1 0 0 1 30 20)" id="17f76efa-0d32-499f-b3ad-22f28e9ec92f"  >
<rect style="stroke: none; stroke-width: 1; stroke-dasharray: none; stroke-linecap: butt; stroke-dashoffset: 0; stroke-linejoin: miter; stroke-miterlimit: 4; fill: rgb(255,255,255); fill-rule: nonzero; opacity: 1; visibility: hidden;" vector-effect="non-scaling-stroke"  x="-30" y="-20" rx="0" ry="0" width="60" height="40" />
</g>
<g transform="matrix(Infinity NaN NaN Infinity 0 0)" id="2f490d69-8276-4dca-99ea-c74c0e5d5074"  >
</g>
<g transform="matrix(0.17 0 0 0.17 30 20)"  >
<path style="stroke: rgb(0,0,0); stroke-width: 0; stroke-dasharray: none; stroke-linecap: butt; stroke-dashoffset: 0; stroke-linejoin: miter; stroke-miterlimit: 4; fill: rgb(0,0,0); fill-rule: nonzero; opacity: 1;"  transform=" translate(-255.94, -255.97)" d="M 256 294.1 L 383 167 C 392.4 157.6 407.6 157.6 416.9 167 C 426.19999999999993 176.4 426.2 191.6 416.9 201 L 273 345 C 263.9 354.1 249.3 354.3 239.9 345.7 L 95 201.1 C 90.3 196.4 88 190.2 88 184.1 C 88 178 90.3 171.79999999999998 95 167.1 C 104.4 157.7 119.6 157.7 128.9 167.1 L 256 294.1 z" stroke-linecap="round" />
</g>
</svg>