<svg xmlns="http://www.w3.org/2000/svg" xmlns:xlink="http://www.w3.org/1999/xlink" version="1.1" width="300" height="300" viewBox="0 0 300 300" xml:space="preserve">
<rect x="0" y="0" width="100%" height="100%" fill="transparent"></rect>
<g transform="matrix(1 0 0 1 150 150)" id="5b06938a-1272-4ec6-a3ee-430ccbaf3d7c"  >
<rect style="stroke: none; stroke-width: 1; stroke-dasharray: none; stroke-linecap: butt; stroke-dashoffset: 0; stroke-linejoin: miter; stroke-miterlimit: 4; fill: rgb(255,255,255); fill-rule: nonzero; opacity: 1; visibility: hidden;" vector-effect="non-scaling-stroke"  x="-150" y="-150" rx="0" ry="0" width="300" height="300" />
</g>
<g transform="matrix(0 0 0 0 0 0)" id="74f93689-8075-4f15-b1a8-55f7633b83d0"  >
</g>
<g transform="matrix(5.27 0 0 5.27 149.91 151.91)"  >
<path style="stroke: none; stroke-width: 1; stroke-dasharray: none; stroke-linecap: butt; stroke-dashoffset: 0; stroke-linejoin: miter; stroke-miterlimit: 4; fill: rgb(0,0,0); fill-rule: nonzero; opacity: 1;"  transform=" translate(-50, -50)" d="M 78 67 L 78 33 C 78 26.92486775186127 73.07513224813873 22 67 22 L 33 22 C 26.92486775186127 22 22 26.92486775186127 22 33 L 22 67 C 22 73.07513224813873 26.92486775186127 78 33 78 L 67 78 C 73.07513224813873 78 78 73.07513224813873 78 67 Z M 28 33 C 28 30.238576250846034 30.238576250846034 28 33 28 L 67 28 C 67.23136027044055 28.007073269229547 67.46193297871275 28.030464703402092 67.69 28.07 L 28.07 67.69 C 28.030464703402092 67.46193297871275 28.00707326922955 67.23136027044055 28 67 Z M 32.31 71.93 L 71.93 32.31 C 71.96953529659791 32.53806702128724 71.99292673077045 32.76863972955945 72 33 L 72 67 C 72 69.76142374915396 69.76142374915396 72 67 72 L 33 72 C 32.768639729559446 71.99292673077045 32.53806702128724 71.96953529659791 32.31 71.93 Z" stroke-linecap="round" />
</g>
<g transform="matrix(0 0 0 0 1067.59 0)"  >
<g style=""   >
</g>
</g>
<g transform="matrix(0 0 0 0 0 0)"  >
<g style=""   >
</g>
</g>
</svg>